<svg width="58" height="58" viewBox="0 0 58 58" fill="none" xmlns="http://www.w3.org/2000/svg">
<rect x="0.92043" y="0.737568" width="56.0552" height="56.0552" rx="28.0276" stroke="white" stroke-width="1.47514"/>
<path fill-rule="evenodd" clip-rule="evenodd" d="M25.302 15.1487C26.6081 15.0886 27.0246 15.0752 30.3517 15.0752C33.6788 15.0752 34.0952 15.0897 35.4002 15.1487C36.7052 15.2077 37.596 15.4159 38.3755 15.7177C39.1917 16.0261 39.9321 16.5083 40.5446 17.1318C41.1681 17.7431 41.6491 18.4825 41.9565 19.2998C42.2593 20.0792 42.4664 20.97 42.5266 22.2728C42.5867 23.5811 42.6001 23.9976 42.6001 27.3236C42.6001 30.6507 42.5856 31.0671 42.5266 32.3733C42.4676 33.676 42.2593 34.5668 41.9565 35.3463C41.6491 36.1637 41.1673 36.9043 40.5446 37.5165C39.9321 38.14 39.1917 38.6211 38.3755 38.9284C37.596 39.2313 36.7052 39.4384 35.4025 39.4985C34.0952 39.5586 33.6788 39.572 30.3517 39.572C27.0246 39.572 26.6081 39.5575 25.302 39.4985C23.9992 39.4395 23.1084 39.2313 22.329 38.9284C21.5116 38.621 20.771 38.1392 20.1588 37.5165C19.5356 36.9048 19.0534 36.1646 18.7458 35.3474C18.444 34.568 18.2369 33.6772 18.1768 32.3744C18.1166 31.066 18.1033 30.6496 18.1033 27.3236C18.1033 23.9965 18.1177 23.58 18.1768 22.275C18.2358 20.97 18.444 20.0792 18.7458 19.2998C19.0539 18.4826 19.5365 17.7424 20.1599 17.1307C20.7712 16.5077 21.5111 16.0255 22.3279 15.7177C23.1073 15.4159 23.9981 15.2088 25.3009 15.1487H25.302ZM35.3011 17.3534C34.0095 17.2944 33.622 17.2821 30.3517 17.2821C27.0813 17.2821 26.6938 17.2944 25.4022 17.3534C24.2074 17.408 23.5594 17.6073 23.1273 17.7754C22.5561 17.9981 22.1475 18.262 21.7188 18.6907C21.3124 19.086 20.9997 19.5673 20.8035 20.0993C20.6353 20.5313 20.436 21.1793 20.3815 22.3741C20.3225 23.6658 20.3102 24.0533 20.3102 27.3236C20.3102 30.5939 20.3225 30.9814 20.3815 32.2731C20.436 33.4678 20.6353 34.1159 20.8035 34.5479C20.9995 35.079 21.3124 35.5612 21.7188 35.9565C22.1141 36.3629 22.5962 36.6758 23.1273 36.8718C23.5594 37.0399 24.2074 37.2392 25.4022 37.2938C26.6938 37.3528 27.0802 37.365 30.3517 37.365C33.6231 37.365 34.0095 37.3528 35.3011 37.2938C36.4959 37.2392 37.144 37.0399 37.576 36.8718C38.1472 36.6491 38.5559 36.3852 38.9846 35.9565C39.391 35.5612 39.7039 35.079 39.8998 34.5479C40.068 34.1159 40.2673 33.4678 40.3219 32.2731C40.3809 30.9814 40.3931 30.5939 40.3931 27.3236C40.3931 24.0533 40.3809 23.6658 40.3219 22.3741C40.2673 21.1793 40.068 20.5313 39.8998 20.0993C39.6771 19.528 39.4132 19.1194 38.9846 18.6907C38.5892 18.2844 38.1079 17.9716 37.576 17.7754C37.144 17.6073 36.4959 17.408 35.3011 17.3534V17.3534ZM28.7872 31.0994C29.6609 31.4631 30.6338 31.5122 31.5397 31.2383C32.4456 30.9644 33.2282 30.3845 33.7541 29.5976C34.2799 28.8107 34.5162 27.8657 34.4226 26.924C34.3291 25.9822 33.9115 25.1021 33.2412 24.4341C32.8139 24.007 32.2972 23.68 31.7283 23.4766C31.1594 23.2732 30.5526 23.1985 29.9514 23.2578C29.3501 23.3171 28.7696 23.509 28.2514 23.8196C27.7332 24.1302 27.2904 24.5518 26.9547 25.0541C26.6191 25.5564 26.399 26.1269 26.3103 26.7245C26.2216 27.3221 26.2664 27.9319 26.4417 28.51C26.6169 29.0882 26.9182 29.6203 27.3238 30.068C27.7294 30.5158 28.2292 30.868 28.7872 31.0994ZM25.8999 22.8719C26.4845 22.2872 27.1786 21.8235 27.9424 21.5071C28.7062 21.1907 29.5249 21.0279 30.3517 21.0279C31.1784 21.0279 31.9971 21.1907 32.7609 21.5071C33.5248 21.8235 34.2188 22.2872 34.8034 22.8719C35.388 23.4565 35.8517 24.1505 36.1681 24.9143C36.4845 25.6782 36.6474 26.4968 36.6474 27.3236C36.6474 28.1504 36.4845 28.969 36.1681 29.7328C35.8517 30.4967 35.388 31.1907 34.8034 31.7753C33.6227 32.956 32.0214 33.6193 30.3517 33.6193C28.6819 33.6193 27.0806 32.956 25.8999 31.7753C24.7193 30.5946 24.056 28.9933 24.056 27.3236C24.056 25.6539 24.7193 24.0525 25.8999 22.8719V22.8719ZM38.0437 21.9655C38.1885 21.8288 38.3045 21.6645 38.3847 21.4822C38.4649 21.2999 38.5078 21.1034 38.5107 20.9042C38.5136 20.7051 38.4765 20.5074 38.4016 20.3229C38.3268 20.1383 38.2156 19.9707 38.0748 19.8298C37.934 19.689 37.7663 19.5779 37.5818 19.503C37.3972 19.4281 37.1995 19.3911 37.0004 19.394C36.8013 19.3969 36.6047 19.4397 36.4224 19.5199C36.2402 19.6001 36.0758 19.7161 35.9392 19.861C35.6734 20.1427 35.5279 20.517 35.5335 20.9042C35.5392 21.2915 35.6955 21.6614 35.9694 21.9352C36.2433 22.2091 36.6131 22.3655 37.0004 22.3711C37.3877 22.3768 37.7619 22.2313 38.0437 21.9655V21.9655Z" fill="white"/>
</svg>
