<svg width="58" height="58" viewBox="0 0 58 58" fill="none" xmlns="http://www.w3.org/2000/svg">
<rect x="0.737568" y="0.737568" width="56.0552" height="56.0552" rx="28.0276" stroke="white" stroke-width="1.47514"/>
<path d="M43.8929 22.3021C43.8929 22.3021 43.5929 20.2021 42.6929 19.3021C41.5929 18.1021 40.2929 18.1021 39.6929 18.0021C35.4929 17.7021 29.1929 17.7021 29.1929 17.7021C29.1929 17.7021 22.8929 17.7021 18.6929 18.0021C18.0929 18.1021 16.7929 18.1021 15.6929 19.3021C14.7929 20.2021 14.4929 22.3021 14.4929 22.3021C14.4929 22.3021 14.1929 24.7021 14.1929 27.1021V29.3021C14.1929 31.7021 14.4929 34.2021 14.4929 34.2021C14.4929 34.2021 14.7929 36.3021 15.6929 37.2021C16.7929 38.4021 18.2929 38.4021 18.9929 38.5021C21.3929 38.6021 29.1929 38.7021 29.1929 38.7021C29.1929 38.7021 35.4929 38.7021 39.6929 38.4021C40.2929 38.3021 41.5929 38.3022 42.6929 37.1021C43.5929 36.2021 43.8929 34.1021 43.8929 34.1021C43.8929 34.1021 44.1929 31.7021 44.1929 29.3021V27.1021C44.1929 24.7021 43.8929 22.3021 43.8929 22.3021V22.3021ZM26.0929 32.1021V23.7021L34.1929 27.9021L26.0929 32.1021V32.1021Z" fill="white"/>
</svg>
