<svg width="124" height="50" viewBox="0 0 124 50" fill="none" xmlns="http://www.w3.org/2000/svg">
<rect width="124" height="50" fill="white"/>
<path d="M12.346 19.256V19.616C11.938 19.628 11.626 19.676 11.41 19.76C11.206 19.832 11.068 19.976 10.996 20.192C10.924 20.396 10.888 20.72 10.888 21.164V30.092C10.888 30.524 10.924 30.848 10.996 31.064C11.068 31.28 11.206 31.424 11.41 31.496C11.626 31.556 11.938 31.586 12.346 31.586H13.66C14.224 31.586 14.68 31.526 15.028 31.406C15.388 31.286 15.67 31.1 15.874 30.848C16.09 30.584 16.252 30.236 16.36 29.804C16.468 29.372 16.552 28.844 16.612 28.22H17.026C16.99 28.592 16.972 29.084 16.972 29.696C16.972 29.924 16.978 30.254 16.99 30.686C17.014 31.106 17.05 31.544 17.098 32C16.486 31.976 15.796 31.964 15.028 31.964C14.26 31.952 13.576 31.946 12.976 31.946C12.712 31.946 12.37 31.946 11.95 31.946C11.542 31.946 11.098 31.952 10.618 31.964C10.138 31.964 9.652 31.97 9.16 31.982C8.668 31.982 8.2 31.988 7.756 32V31.64C8.164 31.616 8.47 31.568 8.674 31.496C8.89 31.424 9.034 31.28 9.106 31.064C9.178 30.848 9.214 30.524 9.214 30.092V21.164C9.214 20.72 9.178 20.396 9.106 20.192C9.034 19.976 8.89 19.832 8.674 19.76C8.47 19.676 8.164 19.628 7.756 19.616V19.256C8.008 19.268 8.338 19.28 8.746 19.292C9.154 19.304 9.592 19.31 10.06 19.31C10.48 19.31 10.894 19.304 11.302 19.292C11.722 19.28 12.07 19.268 12.346 19.256ZM22.514 22.478C23.282 22.478 23.972 22.646 24.584 22.982C25.196 23.318 25.682 23.846 26.042 24.566C26.414 25.286 26.6 26.222 26.6 27.374C26.6 28.526 26.414 29.462 26.042 30.182C25.682 30.89 25.196 31.412 24.584 31.748C23.972 32.084 23.282 32.252 22.514 32.252C21.758 32.252 21.068 32.084 20.444 31.748C19.832 31.412 19.34 30.89 18.968 30.182C18.608 29.462 18.428 28.526 18.428 27.374C18.428 26.222 18.608 25.286 18.968 24.566C19.34 23.846 19.832 23.318 20.444 22.982C21.068 22.646 21.758 22.478 22.514 22.478ZM22.514 22.838C21.83 22.838 21.266 23.192 20.822 23.9C20.39 24.608 20.174 25.766 20.174 27.374C20.174 28.982 20.39 30.14 20.822 30.848C21.266 31.544 21.83 31.892 22.514 31.892C23.198 31.892 23.756 31.544 24.188 30.848C24.632 30.14 24.854 28.982 24.854 27.374C24.854 25.766 24.632 24.608 24.188 23.9C23.756 23.192 23.198 22.838 22.514 22.838ZM31.2774 35.384C30.6414 35.384 30.0414 35.318 29.4774 35.186C28.9134 35.054 28.4574 34.844 28.1094 34.556C27.7734 34.28 27.6054 33.926 27.6054 33.494C27.6054 33.074 27.7734 32.714 28.1094 32.414C28.4454 32.114 28.9014 31.886 29.4774 31.73L29.5854 32.018C29.3214 32.102 29.1114 32.27 28.9554 32.522C28.7994 32.774 28.7214 33.056 28.7214 33.368C28.7214 33.92 28.9734 34.34 29.4774 34.628C29.9934 34.928 30.6594 35.078 31.4754 35.078C32.0154 35.078 32.5434 35.006 33.0594 34.862C33.5754 34.73 34.0014 34.502 34.3374 34.178C34.6734 33.854 34.8414 33.428 34.8414 32.9C34.8414 32.504 34.6974 32.18 34.4094 31.928C34.1334 31.664 33.5814 31.532 32.7534 31.532H31.4214C31.0374 31.532 30.6654 31.502 30.3054 31.442C29.9454 31.382 29.6514 31.256 29.4234 31.064C29.1954 30.872 29.0814 30.578 29.0814 30.182C29.0814 29.774 29.2494 29.384 29.5854 29.012C29.9214 28.628 30.5394 28.238 31.4394 27.842L31.6554 28.004C31.2474 28.22 30.8934 28.442 30.5934 28.67C30.2934 28.886 30.1434 29.144 30.1434 29.444C30.1434 29.828 30.4314 30.02 31.0074 30.02H33.2574C33.7614 30.02 34.2234 30.092 34.6434 30.236C35.0754 30.38 35.4234 30.608 35.6874 30.92C35.9514 31.232 36.0834 31.64 36.0834 32.144C36.0834 32.708 35.9034 33.236 35.5434 33.728C35.1834 34.22 34.6434 34.616 33.9234 34.916C33.2154 35.228 32.3334 35.384 31.2774 35.384ZM31.3674 28.166C30.7794 28.166 30.2454 28.07 29.7654 27.878C29.2854 27.674 28.9074 27.362 28.6314 26.942C28.3554 26.522 28.2174 25.982 28.2174 25.322C28.2174 24.662 28.3554 24.122 28.6314 23.702C28.9074 23.282 29.2854 22.976 29.7654 22.784C30.2454 22.58 30.7794 22.478 31.3674 22.478C31.9674 22.478 32.5014 22.58 32.9694 22.784C33.4494 22.976 33.8274 23.282 34.1034 23.702C34.3794 24.122 34.5174 24.662 34.5174 25.322C34.5174 25.982 34.3794 26.522 34.1034 26.942C33.8274 27.362 33.4494 27.674 32.9694 27.878C32.5014 28.07 31.9674 28.166 31.3674 28.166ZM31.3674 27.842C31.8234 27.842 32.1774 27.662 32.4294 27.302C32.6934 26.942 32.8254 26.282 32.8254 25.322C32.8254 24.362 32.6934 23.702 32.4294 23.342C32.1774 22.982 31.8234 22.802 31.3674 22.802C30.9234 22.802 30.5694 22.982 30.3054 23.342C30.0414 23.702 29.9094 24.362 29.9094 25.322C29.9094 26.282 30.0414 26.942 30.3054 27.302C30.5694 27.662 30.9234 27.842 31.3674 27.842ZM33.9594 23.972L33.6354 23.846C33.8034 23.438 34.0914 23.078 34.4994 22.766C34.9074 22.454 35.3334 22.298 35.7774 22.298C36.0894 22.298 36.3414 22.388 36.5334 22.568C36.7254 22.736 36.8214 22.994 36.8214 23.342C36.8214 23.714 36.7194 23.978 36.5154 24.134C36.3234 24.278 36.1254 24.35 35.9214 24.35C35.7414 24.35 35.5734 24.29 35.4174 24.17C35.2614 24.038 35.1714 23.834 35.1474 23.558C35.1234 23.282 35.2074 22.928 35.3994 22.496L35.6334 22.55C35.1294 22.742 34.7694 22.946 34.5534 23.162C34.3374 23.366 34.1394 23.636 33.9594 23.972ZM41.7093 22.478C42.4773 22.478 43.1673 22.646 43.7793 22.982C44.3913 23.318 44.8773 23.846 45.2373 24.566C45.6093 25.286 45.7953 26.222 45.7953 27.374C45.7953 28.526 45.6093 29.462 45.2373 30.182C44.8773 30.89 44.3913 31.412 43.7793 31.748C43.1673 32.084 42.4773 32.252 41.7093 32.252C40.9533 32.252 40.2633 32.084 39.6393 31.748C39.0273 31.412 38.5353 30.89 38.1633 30.182C37.8033 29.462 37.6233 28.526 37.6233 27.374C37.6233 26.222 37.8033 25.286 38.1633 24.566C38.5353 23.846 39.0273 23.318 39.6393 22.982C40.2633 22.646 40.9533 22.478 41.7093 22.478ZM41.7093 22.838C41.0253 22.838 40.4613 23.192 40.0173 23.9C39.5853 24.608 39.3693 25.766 39.3693 27.374C39.3693 28.982 39.5853 30.14 40.0173 30.848C40.4613 31.544 41.0253 31.892 41.7093 31.892C42.3933 31.892 42.9513 31.544 43.3833 30.848C43.8273 30.14 44.0493 28.982 44.0493 27.374C44.0493 25.766 43.8273 24.608 43.3833 23.9C42.9513 23.192 42.3933 22.838 41.7093 22.838ZM55.7291 19.058C56.3291 19.058 56.7851 19.13 57.0971 19.274C57.4091 19.406 57.6851 19.556 57.9251 19.724C58.0691 19.808 58.1831 19.874 58.2671 19.922C58.3631 19.958 58.4531 19.976 58.5371 19.976C58.6571 19.976 58.7411 19.91 58.7891 19.778C58.8491 19.646 58.8971 19.448 58.9331 19.184H59.3471C59.3351 19.388 59.3171 19.634 59.2931 19.922C59.2811 20.198 59.2691 20.57 59.2571 21.038C59.2571 21.494 59.2571 22.1 59.2571 22.856H58.8431C58.8071 22.28 58.6811 21.728 58.4651 21.2C58.2491 20.672 57.9311 20.24 57.5111 19.904C57.1031 19.568 56.5631 19.4 55.8911 19.4C55.2551 19.4 54.7271 19.592 54.3071 19.976C53.8991 20.36 53.6951 20.864 53.6951 21.488C53.6951 22.028 53.8331 22.484 54.1091 22.856C54.3851 23.216 54.7511 23.546 55.2071 23.846C55.6751 24.134 56.1791 24.446 56.7191 24.782C57.3431 25.166 57.8951 25.55 58.3751 25.934C58.8671 26.306 59.2511 26.72 59.5271 27.176C59.8151 27.632 59.9591 28.184 59.9591 28.832C59.9591 29.6 59.7851 30.236 59.4371 30.74C59.0891 31.244 58.6271 31.622 58.0511 31.874C57.4751 32.126 56.8391 32.252 56.1431 32.252C55.5071 32.252 55.0031 32.18 54.6311 32.036C54.2591 31.892 53.9411 31.742 53.6771 31.586C53.4131 31.418 53.2091 31.334 53.0651 31.334C52.9451 31.334 52.8551 31.4 52.7951 31.532C52.7471 31.664 52.7051 31.862 52.6691 32.126H52.2551C52.2791 31.874 52.2911 31.58 52.2911 31.244C52.3031 30.896 52.3091 30.446 52.3091 29.894C52.3211 29.342 52.3271 28.646 52.3271 27.806H52.7411C52.7891 28.526 52.9211 29.198 53.1371 29.822C53.3651 30.446 53.7071 30.95 54.1631 31.334C54.6311 31.706 55.2491 31.892 56.0171 31.892C56.4131 31.892 56.7851 31.814 57.1331 31.658C57.4931 31.49 57.7871 31.232 58.0151 30.884C58.2431 30.524 58.3571 30.062 58.3571 29.498C58.3571 29.006 58.2371 28.58 57.9971 28.22C57.7691 27.848 57.4451 27.506 57.0251 27.194C56.6051 26.87 56.1131 26.54 55.5491 26.204C54.9851 25.856 54.4571 25.502 53.9651 25.142C53.4731 24.782 53.0771 24.368 52.7771 23.9C52.4891 23.42 52.3451 22.844 52.3451 22.172C52.3451 21.464 52.5011 20.882 52.8131 20.426C53.1371 19.958 53.5571 19.616 54.0731 19.4C54.5891 19.172 55.1411 19.058 55.7291 19.058ZM69.5358 22.532V30.056C69.5358 30.596 69.6318 30.998 69.8238 31.262C70.0278 31.514 70.3878 31.64 70.9038 31.64V32.018C70.5318 31.982 70.1598 31.964 69.7878 31.964C69.4398 31.964 69.1038 31.982 68.7798 32.018C68.4678 32.054 68.1798 32.12 67.9158 32.216V30.092C67.6158 30.872 67.1898 31.43 66.6378 31.766C66.0978 32.09 65.5398 32.252 64.9638 32.252C64.5438 32.252 64.1778 32.192 63.8658 32.072C63.5538 31.952 63.2958 31.784 63.0918 31.568C62.8638 31.328 62.7078 31.016 62.6238 30.632C62.5398 30.248 62.4978 29.774 62.4978 29.21V24.692C62.4978 24.152 62.4018 23.756 62.2098 23.504C62.0178 23.24 61.6578 23.108 61.1298 23.108V22.73C61.5138 22.766 61.8858 22.784 62.2458 22.784C62.5938 22.784 62.9238 22.766 63.2358 22.73C63.5598 22.682 63.8538 22.616 64.1178 22.532V29.606C64.1178 29.978 64.1418 30.32 64.1898 30.632C64.2378 30.944 64.3578 31.196 64.5498 31.388C64.7418 31.58 65.0538 31.676 65.4858 31.676C65.9538 31.676 66.3678 31.532 66.7278 31.244C67.0998 30.956 67.3878 30.566 67.5918 30.074C67.8078 29.582 67.9158 29.03 67.9158 28.418V24.692C67.9158 24.152 67.8198 23.756 67.6278 23.504C67.4358 23.24 67.0758 23.108 66.5478 23.108V22.73C66.9318 22.766 67.3038 22.784 67.6638 22.784C68.0118 22.784 68.3418 22.766 68.6538 22.73C68.9778 22.682 69.2718 22.616 69.5358 22.532ZM74.6848 22.532V33.584C74.6848 34.1 74.8348 34.442 75.1348 34.61C75.4468 34.79 75.8728 34.88 76.4128 34.88V35.258C76.1488 35.246 75.7828 35.228 75.3148 35.204C74.8468 35.192 74.3488 35.186 73.8208 35.186C73.4488 35.186 73.0768 35.192 72.7048 35.204C72.3448 35.228 72.0688 35.246 71.8768 35.258V34.88C72.3088 34.88 72.6148 34.802 72.7948 34.646C72.9748 34.49 73.0648 34.196 73.0648 33.764V24.692C73.0648 24.152 72.9688 23.756 72.7768 23.504C72.5848 23.24 72.2248 23.108 71.6968 23.108V22.73C72.0808 22.766 72.4528 22.784 72.8128 22.784C73.1608 22.784 73.4908 22.766 73.8028 22.73C74.1268 22.682 74.4208 22.616 74.6848 22.532ZM77.5648 22.478C78.2008 22.478 78.7708 22.652 79.2748 23C79.7788 23.336 80.1748 23.834 80.4628 24.494C80.7628 25.154 80.9128 25.97 80.9128 26.942C80.9128 27.59 80.8348 28.232 80.6788 28.868C80.5228 29.492 80.2768 30.062 79.9408 30.578C79.6168 31.082 79.1908 31.49 78.6628 31.802C78.1468 32.102 77.5228 32.252 76.7908 32.252C76.2268 32.252 75.7348 32.12 75.3148 31.856C74.9068 31.592 74.6308 31.274 74.4868 30.902L74.6668 30.65C74.8348 30.986 75.0748 31.268 75.3868 31.496C75.7108 31.724 76.1128 31.838 76.5928 31.838C77.2648 31.838 77.7868 31.628 78.1588 31.208C78.5308 30.788 78.7888 30.23 78.9328 29.534C79.0888 28.826 79.1668 28.046 79.1668 27.194C79.1668 26.234 79.0888 25.448 78.9328 24.836C78.7768 24.224 78.5428 23.768 78.2308 23.468C77.9188 23.168 77.5348 23.018 77.0788 23.018C76.4908 23.018 75.9568 23.264 75.4768 23.756C74.9968 24.236 74.6908 24.968 74.5588 25.952L74.3428 25.7C74.4748 24.68 74.8348 23.888 75.4228 23.324C76.0228 22.76 76.7368 22.478 77.5648 22.478ZM85.1438 22.532V33.584C85.1438 34.1 85.2938 34.442 85.5938 34.61C85.9058 34.79 86.3318 34.88 86.8718 34.88V35.258C86.6078 35.246 86.2418 35.228 85.7738 35.204C85.3058 35.192 84.8078 35.186 84.2798 35.186C83.9078 35.186 83.5358 35.192 83.1638 35.204C82.8038 35.228 82.5278 35.246 82.3358 35.258V34.88C82.7678 34.88 83.0738 34.802 83.2538 34.646C83.4338 34.49 83.5238 34.196 83.5238 33.764V24.692C83.5238 24.152 83.4278 23.756 83.2358 23.504C83.0438 23.24 82.6838 23.108 82.1558 23.108V22.73C82.5398 22.766 82.9118 22.784 83.2718 22.784C83.6198 22.784 83.9498 22.766 84.2618 22.73C84.5858 22.682 84.8798 22.616 85.1438 22.532ZM88.0238 22.478C88.6598 22.478 89.2298 22.652 89.7338 23C90.2378 23.336 90.6338 23.834 90.9218 24.494C91.2218 25.154 91.3718 25.97 91.3718 26.942C91.3718 27.59 91.2938 28.232 91.1378 28.868C90.9818 29.492 90.7358 30.062 90.3998 30.578C90.0758 31.082 89.6498 31.49 89.1218 31.802C88.6058 32.102 87.9818 32.252 87.2498 32.252C86.6858 32.252 86.1938 32.12 85.7738 31.856C85.3658 31.592 85.0898 31.274 84.9458 30.902L85.1258 30.65C85.2938 30.986 85.5338 31.268 85.8458 31.496C86.1698 31.724 86.5718 31.838 87.0518 31.838C87.7238 31.838 88.2458 31.628 88.6178 31.208C88.9898 30.788 89.2478 30.23 89.3918 29.534C89.5478 28.826 89.6258 28.046 89.6258 27.194C89.6258 26.234 89.5478 25.448 89.3918 24.836C89.2358 24.224 89.0018 23.768 88.6898 23.468C88.3778 23.168 87.9938 23.018 87.5378 23.018C86.9498 23.018 86.4158 23.264 85.9358 23.756C85.4558 24.236 85.1498 24.968 85.0178 25.952L84.8018 25.7C84.9338 24.68 85.2938 23.888 85.8818 23.324C86.4818 22.76 87.1958 22.478 88.0238 22.478ZM97.1508 22.478C97.9188 22.478 98.6088 22.646 99.2208 22.982C99.8328 23.318 100.319 23.846 100.679 24.566C101.051 25.286 101.237 26.222 101.237 27.374C101.237 28.526 101.051 29.462 100.679 30.182C100.319 30.89 99.8328 31.412 99.2208 31.748C98.6088 32.084 97.9188 32.252 97.1508 32.252C96.3948 32.252 95.7048 32.084 95.0808 31.748C94.4688 31.412 93.9768 30.89 93.6048 30.182C93.2448 29.462 93.0648 28.526 93.0648 27.374C93.0648 26.222 93.2448 25.286 93.6048 24.566C93.9768 23.846 94.4688 23.318 95.0808 22.982C95.7048 22.646 96.3948 22.478 97.1508 22.478ZM97.1508 22.838C96.4668 22.838 95.9028 23.192 95.4588 23.9C95.0268 24.608 94.8108 25.766 94.8108 27.374C94.8108 28.982 95.0268 30.14 95.4588 30.848C95.9028 31.544 96.4668 31.892 97.1508 31.892C97.8348 31.892 98.3928 31.544 98.8248 30.848C99.2688 30.14 99.4908 28.982 99.4908 27.374C99.4908 25.766 99.2688 24.608 98.8248 23.9C98.3928 23.192 97.8348 22.838 97.1508 22.838ZM108.2 22.478C108.524 22.478 108.806 22.544 109.046 22.676C109.298 22.808 109.49 22.982 109.622 23.198C109.766 23.402 109.838 23.636 109.838 23.9C109.838 24.2 109.742 24.464 109.55 24.692C109.37 24.92 109.124 25.034 108.812 25.034C108.56 25.034 108.338 24.956 108.146 24.8C107.954 24.632 107.858 24.398 107.858 24.098C107.858 23.87 107.918 23.678 108.038 23.522C108.17 23.354 108.314 23.222 108.47 23.126C108.386 23.006 108.26 22.946 108.092 22.946C107.72 22.946 107.378 23.06 107.066 23.288C106.754 23.504 106.49 23.786 106.274 24.134C106.058 24.482 105.89 24.854 105.77 25.25C105.65 25.634 105.59 25.994 105.59 26.33V30.146C105.59 30.734 105.758 31.13 106.094 31.334C106.442 31.526 106.91 31.622 107.498 31.622V32C107.222 31.988 106.832 31.976 106.328 31.964C105.824 31.94 105.29 31.928 104.726 31.928C104.318 31.928 103.91 31.94 103.502 31.964C103.106 31.976 102.806 31.988 102.602 32V31.622C103.094 31.622 103.442 31.532 103.646 31.352C103.862 31.172 103.97 30.83 103.97 30.326V24.692C103.97 24.152 103.874 23.756 103.682 23.504C103.49 23.24 103.13 23.108 102.602 23.108V22.73C102.986 22.766 103.358 22.784 103.718 22.784C104.066 22.784 104.396 22.766 104.708 22.73C105.032 22.682 105.326 22.616 105.59 22.532V24.782C105.722 24.434 105.908 24.086 106.148 23.738C106.4 23.378 106.7 23.078 107.048 22.838C107.396 22.598 107.78 22.478 108.2 22.478ZM113.516 19.742V22.748H116.18V23.108H113.516V30.074C113.516 30.638 113.618 31.034 113.822 31.262C114.026 31.49 114.308 31.604 114.668 31.604C115.028 31.604 115.34 31.46 115.604 31.172C115.868 30.872 116.096 30.374 116.288 29.678L116.648 29.768C116.528 30.464 116.288 31.052 115.928 31.532C115.58 32.012 115.04 32.252 114.308 32.252C113.9 32.252 113.564 32.198 113.3 32.09C113.036 31.994 112.802 31.85 112.598 31.658C112.334 31.382 112.148 31.052 112.04 30.668C111.944 30.284 111.896 29.774 111.896 29.138V23.108H110.168V22.748H111.896V19.994C112.196 19.982 112.484 19.958 112.76 19.922C113.036 19.886 113.288 19.826 113.516 19.742Z" fill="black"/>
</svg>
