<svg width="202" height="58" viewBox="0 0 202 58" fill="none" xmlns="http://www.w3.org/2000/svg">
<rect width="202" height="58" fill="white"/>
<path d="M25.237 23.132V23.552C24.761 23.566 24.397 23.622 24.145 23.72C23.907 23.804 23.746 23.972 23.662 24.224C23.578 24.462 23.536 24.84 23.536 25.358V35.774C23.536 36.278 23.578 36.656 23.662 36.908C23.746 37.16 23.907 37.328 24.145 37.412C24.397 37.482 24.761 37.517 25.237 37.517H26.77C27.428 37.517 27.96 37.447 28.366 37.307C28.786 37.167 29.115 36.95 29.353 36.656C29.605 36.348 29.794 35.942 29.92 35.438C30.046 34.934 30.144 34.318 30.214 33.59H30.697C30.655 34.024 30.634 34.598 30.634 35.312C30.634 35.578 30.641 35.963 30.655 36.467C30.683 36.957 30.725 37.468 30.781 38C30.067 37.972 29.262 37.958 28.366 37.958C27.47 37.944 26.672 37.937 25.972 37.937C25.664 37.937 25.265 37.937 24.775 37.937C24.299 37.937 23.781 37.944 23.221 37.958C22.661 37.958 22.094 37.965 21.52 37.979C20.946 37.979 20.4 37.986 19.882 38V37.58C20.358 37.552 20.715 37.496 20.953 37.412C21.205 37.328 21.373 37.16 21.457 36.908C21.541 36.656 21.583 36.278 21.583 35.774V25.358C21.583 24.84 21.541 24.462 21.457 24.224C21.373 23.972 21.205 23.804 20.953 23.72C20.715 23.622 20.358 23.566 19.882 23.552V23.132C20.176 23.146 20.561 23.16 21.037 23.174C21.513 23.188 22.024 23.195 22.57 23.195C23.06 23.195 23.543 23.188 24.019 23.174C24.509 23.16 24.915 23.146 25.237 23.132ZM39.1367 22.838C40.4667 22.838 41.6287 23.139 42.6227 23.741C43.6307 24.343 44.4077 25.211 44.9537 26.345C45.5137 27.465 45.7937 28.83 45.7937 30.44C45.7937 32.008 45.5067 33.38 44.9327 34.556C44.3727 35.732 43.5887 36.649 42.5807 37.307C41.5727 37.965 40.4177 38.294 39.1157 38.294C37.7857 38.294 36.6167 37.993 35.6087 37.391C34.6147 36.789 33.8377 35.921 33.2777 34.787C32.7317 33.653 32.4587 32.288 32.4587 30.692C32.4587 29.124 32.7457 27.752 33.3197 26.576C33.8937 25.4 34.6777 24.483 35.6717 23.825C36.6797 23.167 37.8347 22.838 39.1367 22.838ZM39.0527 23.216C38.1427 23.216 37.3517 23.531 36.6797 24.161C36.0077 24.791 35.4827 25.659 35.1047 26.765C34.7407 27.871 34.5587 29.152 34.5587 30.608C34.5587 32.092 34.7617 33.387 35.1677 34.493C35.5877 35.585 36.1477 36.432 36.8477 37.034C37.5617 37.622 38.3457 37.916 39.1997 37.916C40.1097 37.916 40.9007 37.601 41.5727 36.971C42.2447 36.341 42.7627 35.473 43.1267 34.367C43.5047 33.247 43.6937 31.966 43.6937 30.524C43.6937 29.026 43.4837 27.731 43.0637 26.639C42.6577 25.547 42.1047 24.707 41.4047 24.119C40.7047 23.517 39.9207 23.216 39.0527 23.216ZM54.8071 22.838C55.7171 22.838 56.4521 22.978 57.0121 23.258C57.5721 23.524 58.0971 23.839 58.5871 24.203C58.7691 24.343 58.9091 24.413 59.0071 24.413C59.2731 24.413 59.4481 23.986 59.5321 23.132H60.0151C59.9871 23.65 59.9661 24.28 59.9521 25.022C59.9381 25.764 59.9311 26.744 59.9311 27.962H59.4481C59.3501 27.374 59.2311 26.807 59.0911 26.261C58.9511 25.715 58.7201 25.246 58.3981 24.854C57.9921 24.336 57.4601 23.937 56.8021 23.657C56.1441 23.363 55.4651 23.216 54.7651 23.216C54.0651 23.216 53.4281 23.391 52.8541 23.741C52.2941 24.077 51.8111 24.567 51.4051 25.211C50.9991 25.855 50.6841 26.632 50.4601 27.542C50.2501 28.438 50.1451 29.453 50.1451 30.587C50.1451 33.107 50.5511 34.955 51.3631 36.131C52.1751 37.293 53.4351 37.874 55.1431 37.874C55.6471 37.874 56.0811 37.804 56.4451 37.664C56.8231 37.51 57.1171 37.363 57.3271 37.223C57.5931 37.041 57.7611 36.873 57.8311 36.719C57.9011 36.551 57.9361 36.334 57.9361 36.068V34.052C57.9361 33.478 57.8801 33.051 57.7681 32.771C57.6561 32.491 57.4461 32.302 57.1381 32.204C56.8441 32.106 56.4031 32.05 55.8151 32.036V31.616C56.0671 31.63 56.3611 31.644 56.6971 31.658C57.0331 31.658 57.3831 31.665 57.7471 31.679C58.1251 31.679 58.4681 31.679 58.7761 31.679C59.2381 31.679 59.6511 31.672 60.0151 31.658C60.3931 31.644 60.7081 31.63 60.9601 31.616V32.036C60.6521 32.05 60.4211 32.099 60.2671 32.183C60.1131 32.267 60.0081 32.435 59.9521 32.687C59.9101 32.939 59.8891 33.324 59.8891 33.842V38H59.4691C59.4551 37.762 59.3991 37.503 59.3011 37.223C59.2171 36.943 59.0841 36.803 58.9021 36.803C58.8181 36.803 58.7341 36.824 58.6501 36.866C58.5661 36.908 58.4191 37.006 58.2091 37.16C57.7471 37.51 57.2571 37.79 56.7391 38C56.2211 38.196 55.6191 38.294 54.9331 38.294C53.4911 38.294 52.2521 38 51.2161 37.412C50.1941 36.81 49.4101 35.949 48.8641 34.829C48.3181 33.709 48.0451 32.372 48.0451 30.818C48.0451 29.18 48.3391 27.766 48.9271 26.576C49.5151 25.386 50.3131 24.469 51.3211 23.825C52.3431 23.167 53.5051 22.838 54.8071 22.838ZM69.4678 22.838C70.7978 22.838 71.9598 23.139 72.9538 23.741C73.9618 24.343 74.7388 25.211 75.2848 26.345C75.8448 27.465 76.1248 28.83 76.1248 30.44C76.1248 32.008 75.8378 33.38 75.2638 34.556C74.7038 35.732 73.9198 36.649 72.9118 37.307C71.9038 37.965 70.7488 38.294 69.4468 38.294C68.1168 38.294 66.9478 37.993 65.9398 37.391C64.9458 36.789 64.1688 35.921 63.6088 34.787C63.0628 33.653 62.7898 32.288 62.7898 30.692C62.7898 29.124 63.0768 27.752 63.6508 26.576C64.2248 25.4 65.0088 24.483 66.0028 23.825C67.0108 23.167 68.1658 22.838 69.4678 22.838ZM69.3838 23.216C68.4738 23.216 67.6828 23.531 67.0108 24.161C66.3388 24.791 65.8138 25.659 65.4358 26.765C65.0718 27.871 64.8898 29.152 64.8898 30.608C64.8898 32.092 65.0928 33.387 65.4988 34.493C65.9188 35.585 66.4788 36.432 67.1788 37.034C67.8928 37.622 68.6768 37.916 69.5308 37.916C70.4408 37.916 71.2318 37.601 71.9038 36.971C72.5758 36.341 73.0938 35.473 73.4578 34.367C73.8358 33.247 74.0248 31.966 74.0248 30.524C74.0248 29.026 73.8148 27.731 73.3948 26.639C72.9888 25.547 72.4358 24.707 71.7358 24.119C71.0358 23.517 70.2518 23.216 69.3838 23.216ZM90.2627 22.838C91.1867 22.838 91.9427 22.978 92.5307 23.258C93.1327 23.524 93.6647 23.839 94.1267 24.203C94.4067 24.413 94.6167 24.441 94.7567 24.287C94.9107 24.119 95.0157 23.734 95.0717 23.132H95.5547C95.5267 23.65 95.5057 24.28 95.4917 25.022C95.4777 25.764 95.4707 26.744 95.4707 27.962H94.9877C94.8897 27.36 94.7987 26.884 94.7147 26.534C94.6307 26.17 94.5257 25.862 94.3997 25.61C94.2877 25.358 94.1337 25.106 93.9377 24.854C93.5037 24.28 92.9577 23.867 92.2997 23.615C91.6417 23.349 90.9487 23.216 90.2207 23.216C89.5347 23.216 88.9117 23.391 88.3517 23.741C87.8057 24.077 87.3297 24.567 86.9237 25.211C86.5317 25.855 86.2237 26.632 85.9997 27.542C85.7897 28.452 85.6847 29.474 85.6847 30.608C85.6847 31.784 85.8037 32.827 86.0417 33.737C86.2797 34.633 86.6087 35.389 87.0287 36.005C87.4627 36.621 87.9667 37.09 88.5407 37.412C89.1287 37.72 89.7587 37.874 90.4307 37.874C91.0607 37.874 91.7187 37.748 92.4047 37.496C93.0907 37.244 93.6297 36.838 94.0217 36.278C94.3297 35.872 94.5397 35.431 94.6517 34.955C94.7777 34.479 94.8897 33.814 94.9877 32.96H95.4707C95.4707 34.234 95.4777 35.263 95.4917 36.047C95.5057 36.817 95.5267 37.468 95.5547 38H95.0717C95.0157 37.398 94.9177 37.02 94.7777 36.866C94.6517 36.712 94.4347 36.733 94.1267 36.929C93.6087 37.293 93.0557 37.615 92.4677 37.895C91.8937 38.161 91.1517 38.294 90.2417 38.294C88.9117 38.294 87.7427 37.993 86.7347 37.391C85.7407 36.789 84.9637 35.921 84.4037 34.787C83.8577 33.653 83.5847 32.288 83.5847 30.692C83.5847 29.124 83.8717 27.752 84.4457 26.576C85.0197 25.4 85.8037 24.483 86.7977 23.825C87.8057 23.167 88.9607 22.838 90.2627 22.838ZM104.721 22.838C106.051 22.838 107.213 23.139 108.207 23.741C109.215 24.343 109.992 25.211 110.538 26.345C111.098 27.465 111.378 28.83 111.378 30.44C111.378 32.008 111.091 33.38 110.517 34.556C109.957 35.732 109.173 36.649 108.165 37.307C107.157 37.965 106.002 38.294 104.7 38.294C103.37 38.294 102.201 37.993 101.193 37.391C100.199 36.789 99.4217 35.921 98.8617 34.787C98.3157 33.653 98.0427 32.288 98.0427 30.692C98.0427 29.124 98.3297 27.752 98.9037 26.576C99.4777 25.4 100.262 24.483 101.256 23.825C102.264 23.167 103.419 22.838 104.721 22.838ZM104.637 23.216C103.727 23.216 102.936 23.531 102.264 24.161C101.592 24.791 101.067 25.659 100.689 26.765C100.325 27.871 100.143 29.152 100.143 30.608C100.143 32.092 100.346 33.387 100.752 34.493C101.172 35.585 101.732 36.432 102.432 37.034C103.146 37.622 103.93 37.916 104.784 37.916C105.694 37.916 106.485 37.601 107.157 36.971C107.829 36.341 108.347 35.473 108.711 34.367C109.089 33.247 109.278 31.966 109.278 30.524C109.278 29.026 109.068 27.731 108.648 26.639C108.242 25.547 107.689 24.707 106.989 24.119C106.289 23.517 105.505 23.216 104.637 23.216ZM129.74 23.132V23.552C129.264 23.566 128.9 23.622 128.648 23.72C128.41 23.804 128.249 23.972 128.165 24.224C128.081 24.462 128.039 24.84 128.039 25.358V35.774C128.039 36.278 128.081 36.656 128.165 36.908C128.249 37.16 128.41 37.328 128.648 37.412C128.9 37.496 129.264 37.552 129.74 37.58V38C129.418 37.972 129.012 37.958 128.522 37.958C128.046 37.944 127.563 37.937 127.073 37.937C126.527 37.937 126.016 37.944 125.54 37.958C125.064 37.958 124.679 37.972 124.385 38V37.58C124.861 37.552 125.218 37.496 125.456 37.412C125.708 37.328 125.876 37.16 125.96 36.908C126.044 36.656 126.086 36.278 126.086 35.774V24.224L126.17 24.287L121.025 38.105H120.689L115.397 24.476V35.564C115.397 36.068 115.439 36.467 115.523 36.761C115.621 37.041 115.803 37.244 116.069 37.37C116.349 37.482 116.762 37.552 117.308 37.58V38C117.056 37.972 116.727 37.958 116.321 37.958C115.915 37.944 115.53 37.937 115.166 37.937C114.816 37.937 114.459 37.944 114.095 37.958C113.745 37.958 113.451 37.972 113.213 38V37.58C113.689 37.552 114.046 37.482 114.284 37.37C114.536 37.244 114.704 37.041 114.788 36.761C114.872 36.467 114.914 36.068 114.914 35.564V25.358C114.914 24.84 114.872 24.462 114.788 24.224C114.704 23.972 114.536 23.804 114.284 23.72C114.046 23.622 113.689 23.566 113.213 23.552V23.132C113.451 23.146 113.745 23.16 114.095 23.174C114.459 23.188 114.816 23.195 115.166 23.195C115.474 23.195 115.789 23.188 116.111 23.174C116.447 23.16 116.727 23.146 116.951 23.132L121.718 35.69L121.361 35.858L126.086 23.195C126.254 23.195 126.415 23.195 126.569 23.195C126.737 23.195 126.905 23.195 127.073 23.195C127.563 23.195 128.046 23.188 128.522 23.174C129.012 23.16 129.418 23.146 129.74 23.132ZM131.506 23.132C131.8 23.146 132.185 23.16 132.661 23.174C133.137 23.188 133.606 23.195 134.068 23.195C134.726 23.195 135.356 23.188 135.958 23.174C136.56 23.16 136.987 23.153 137.239 23.153C138.933 23.153 140.2 23.538 141.04 24.308C141.88 25.078 142.3 26.072 142.3 27.29C142.3 27.794 142.216 28.326 142.048 28.886C141.88 29.432 141.586 29.943 141.166 30.419C140.76 30.881 140.2 31.259 139.486 31.553C138.772 31.847 137.869 31.994 136.777 31.994H134.761V31.574H136.567C137.561 31.574 138.317 31.385 138.835 31.007C139.367 30.629 139.724 30.132 139.906 29.516C140.102 28.9 140.2 28.235 140.2 27.521C140.2 26.191 139.934 25.197 139.402 24.539C138.884 23.881 137.988 23.552 136.714 23.552C136.07 23.552 135.65 23.671 135.454 23.909C135.258 24.147 135.16 24.63 135.16 25.358V35.774C135.16 36.278 135.209 36.656 135.307 36.908C135.419 37.16 135.629 37.328 135.937 37.412C136.245 37.496 136.693 37.552 137.281 37.58V38C136.917 37.972 136.455 37.958 135.895 37.958C135.335 37.944 134.768 37.937 134.194 37.937C133.648 37.937 133.137 37.944 132.661 37.958C132.185 37.958 131.8 37.972 131.506 38V37.58C131.982 37.552 132.339 37.496 132.577 37.412C132.829 37.328 132.997 37.16 133.081 36.908C133.165 36.656 133.207 36.278 133.207 35.774V25.358C133.207 24.84 133.165 24.462 133.081 24.224C132.997 23.972 132.829 23.804 132.577 23.72C132.339 23.622 131.982 23.566 131.506 23.552V23.132ZM148.83 23.027L153.954 36.236C154.164 36.768 154.402 37.125 154.668 37.307C154.934 37.475 155.179 37.566 155.403 37.58V38C155.123 37.972 154.78 37.958 154.374 37.958C153.968 37.944 153.562 37.937 153.156 37.937C152.61 37.937 152.099 37.944 151.623 37.958C151.147 37.958 150.762 37.972 150.468 38V37.58C151.182 37.552 151.637 37.433 151.833 37.223C152.029 36.999 151.987 36.53 151.707 35.816L147.801 25.379L148.137 25.106L144.483 34.598C144.259 35.158 144.126 35.634 144.084 36.026C144.042 36.404 144.077 36.705 144.189 36.929C144.315 37.153 144.518 37.314 144.798 37.412C145.092 37.51 145.456 37.566 145.89 37.58V38C145.498 37.972 145.085 37.958 144.651 37.958C144.231 37.944 143.839 37.937 143.475 37.937C143.125 37.937 142.824 37.944 142.572 37.958C142.334 37.958 142.11 37.972 141.9 38V37.58C142.18 37.51 142.467 37.349 142.761 37.097C143.055 36.831 143.321 36.383 143.559 35.753L148.494 23.027C148.55 23.027 148.606 23.027 148.662 23.027C148.718 23.027 148.774 23.027 148.83 23.027ZM151.392 31.952V32.372H145.134L145.344 31.952H151.392ZM168.934 23.132V23.552C168.458 23.566 168.094 23.636 167.842 23.762C167.604 23.888 167.443 24.091 167.359 24.371C167.275 24.651 167.233 25.05 167.233 25.568V38.105C167.149 38.105 167.065 38.105 166.981 38.105C166.911 38.105 166.834 38.105 166.75 38.105L157.93 24.476V35.564C157.93 36.068 157.972 36.467 158.056 36.761C158.154 37.041 158.336 37.244 158.602 37.37C158.882 37.482 159.295 37.552 159.841 37.58V38C159.589 37.972 159.26 37.958 158.854 37.958C158.448 37.944 158.063 37.937 157.699 37.937C157.349 37.937 156.992 37.944 156.628 37.958C156.278 37.958 155.984 37.972 155.746 38V37.58C156.222 37.552 156.579 37.482 156.817 37.37C157.069 37.244 157.237 37.041 157.321 36.761C157.405 36.467 157.447 36.068 157.447 35.564V25.358C157.447 24.84 157.405 24.462 157.321 24.224C157.237 23.972 157.069 23.804 156.817 23.72C156.579 23.622 156.222 23.566 155.746 23.552V23.132C155.984 23.146 156.278 23.16 156.628 23.174C156.992 23.188 157.349 23.195 157.699 23.195C158.007 23.195 158.301 23.188 158.581 23.174C158.861 23.16 159.113 23.146 159.337 23.132L166.75 34.556V25.568C166.75 25.05 166.701 24.651 166.603 24.371C166.519 24.091 166.337 23.888 166.057 23.762C165.791 23.636 165.385 23.566 164.839 23.552V23.132C165.091 23.146 165.42 23.16 165.826 23.174C166.246 23.188 166.631 23.195 166.981 23.195C167.345 23.195 167.702 23.188 168.052 23.174C168.416 23.16 168.71 23.146 168.934 23.132ZM182.039 23.132V23.552C181.773 23.608 181.507 23.783 181.241 24.077C180.975 24.357 180.681 24.805 180.359 25.421L176.117 33.821H175.76L170.846 24.749C170.566 24.231 170.328 23.909 170.132 23.783C169.95 23.643 169.782 23.573 169.628 23.573V23.132C169.908 23.146 170.195 23.16 170.489 23.174C170.797 23.188 171.126 23.195 171.476 23.195C171.938 23.195 172.428 23.195 172.946 23.195C173.478 23.181 173.968 23.16 174.416 23.132V23.573C174.066 23.573 173.758 23.615 173.492 23.699C173.226 23.783 173.051 23.937 172.967 24.161C172.883 24.385 172.946 24.7 173.156 25.106L176.705 31.91L176.537 32.036L179.33 26.471C179.722 25.701 179.911 25.106 179.897 24.686C179.897 24.266 179.736 23.979 179.414 23.825C179.092 23.657 178.637 23.566 178.049 23.552V23.132C178.455 23.146 178.868 23.16 179.288 23.174C179.708 23.188 180.1 23.195 180.464 23.195C180.828 23.195 181.129 23.188 181.367 23.174C181.605 23.16 181.829 23.146 182.039 23.132ZM177.062 31.616V35.774C177.062 36.278 177.104 36.656 177.188 36.908C177.272 37.16 177.433 37.328 177.671 37.412C177.923 37.496 178.287 37.552 178.763 37.58V38C178.441 37.972 178.035 37.958 177.545 37.958C177.069 37.944 176.586 37.937 176.096 37.937C175.55 37.937 175.039 37.944 174.563 37.958C174.087 37.958 173.702 37.972 173.408 38V37.58C173.884 37.552 174.241 37.496 174.479 37.412C174.731 37.328 174.899 37.16 174.983 36.908C175.067 36.656 175.109 36.278 175.109 35.774V31.469L176.243 32.771L177.062 31.616Z" fill="black"/>
</svg>
